<svg width="21" height="21" viewBox="0 0 21 21" fill="none" xmlns="http://www.w3.org/2000/svg">
<path d="M2.92276 14.8745C5.33901 19.0596 10.6904 20.4935 14.8755 18.0772C16.5814 17.0923 17.8302 15.6197 18.5474 13.9372C19.5898 11.4921 19.5095 8.60366 18.0782 6.12451C16.6469 3.64535 14.1855 2.13162 11.5468 1.81178C9.73109 1.59169 7.83139 1.93688 6.12548 2.92179C1.94042 5.33803 0.506516 10.6894 2.92276 14.8745Z" stroke="#0385FF" stroke-width="1.2"/>
<path d="M13.5625 12.4688C13.5625 13.0728 13.0728 13.5625 12.4688 13.5625C11.8647 13.5625 11.375 13.0728 11.375 12.4688C11.375 11.8647 11.8647 11.375 12.4688 11.375C13.0728 11.375 13.5625 11.8647 13.5625 12.4688Z" stroke="#0385FF" stroke-width="0.8"/>
<path d="M13.5625 8.53125C13.5625 9.13531 13.0728 9.625 12.4688 9.625C11.8647 9.625 11.375 9.13531 11.375 8.53125C11.375 7.92719 11.8647 7.4375 12.4688 7.4375C13.0728 7.4375 13.5625 7.92719 13.5625 8.53125Z" stroke="#0385FF" stroke-width="0.8"/>
<path d="M9.625 12.4688C9.625 13.0728 9.13531 13.5625 8.53125 13.5625C7.92719 13.5625 7.4375 13.0728 7.4375 12.4688C7.4375 11.8647 7.92719 11.375 8.53125 11.375C9.13531 11.375 9.625 11.8647 9.625 12.4688Z" stroke="#0385FF" stroke-width="0.8"/>
<path d="M9.625 8.53125C9.625 9.13531 9.13531 9.625 8.53125 9.625C7.92719 9.625 7.4375 9.13531 7.4375 8.53125C7.4375 7.92719 7.92719 7.4375 8.53125 7.4375C9.13531 7.4375 9.625 7.92719 9.625 8.53125Z" stroke="#0385FF" stroke-width="0.8"/>
<path d="M13.125 15.9688C13.125 16.3312 12.8312 16.625 12.4688 16.625C12.1063 16.625 11.8125 16.3312 11.8125 15.9688C11.8125 15.6063 12.1063 15.3125 12.4688 15.3125C12.8312 15.3125 13.125 15.6063 13.125 15.9688Z" fill="#0385FF"/>
<path d="M9.1875 15.9688C9.1875 16.3312 8.89369 16.625 8.53125 16.625C8.16881 16.625 7.875 16.3312 7.875 15.9688C7.875 15.6063 8.16881 15.3125 8.53125 15.3125C8.89369 15.3125 9.1875 15.6063 9.1875 15.9688Z" fill="#0385FF"/>
<path d="M13.125 15.9688C13.125 16.3312 12.8312 16.625 12.4688 16.625C12.1063 16.625 11.8125 16.3312 11.8125 15.9688C11.8125 15.6063 12.1063 15.3125 12.4688 15.3125C12.8312 15.3125 13.125 15.6063 13.125 15.9688Z" fill="#0385FF"/>
<path d="M13.125 5.03125C13.125 5.39369 12.8312 5.6875 12.4688 5.6875C12.1063 5.6875 11.8125 5.39369 11.8125 5.03125C11.8125 4.66881 12.1063 4.375 12.4688 4.375C12.8312 4.375 13.125 4.66881 13.125 5.03125Z" fill="#0385FF"/>
<path d="M9.1875 15.9688C9.1875 16.3312 8.89369 16.625 8.53125 16.625C8.16881 16.625 7.875 16.3312 7.875 15.9688C7.875 15.6063 8.16881 15.3125 8.53125 15.3125C8.89369 15.3125 9.1875 15.6063 9.1875 15.9688Z" fill="#0385FF"/>
<path d="M9.1875 5.03125C9.1875 5.39369 8.89369 5.6875 8.53125 5.6875C8.16881 5.6875 7.875 5.39369 7.875 5.03125C7.875 4.66881 8.16881 4.375 8.53125 4.375C8.89369 4.375 9.1875 4.66881 9.1875 5.03125Z" fill="#0385FF"/>
<path d="M15.9687 7.875C16.3312 7.875 16.625 8.16881 16.625 8.53125C16.625 8.89369 16.3312 9.1875 15.9688 9.1875C15.6063 9.1875 15.3125 8.89369 15.3125 8.53125C15.3125 8.16881 15.6063 7.875 15.9687 7.875Z" fill="#0385FF"/>
<path d="M5.03125 7.875C5.39369 7.875 5.6875 8.16881 5.6875 8.53125C5.6875 8.89369 5.39369 9.1875 5.03125 9.1875C4.66881 9.1875 4.375 8.89369 4.375 8.53125C4.375 8.16881 4.66881 7.875 5.03125 7.875Z" fill="#0385FF"/>
<path d="M15.9687 11.8125C16.3312 11.8125 16.625 12.1063 16.625 12.4687C16.625 12.8312 16.3312 13.125 15.9688 13.125C15.6063 13.125 15.3125 12.8312 15.3125 12.4688C15.3125 12.1063 15.6063 11.8125 15.9687 11.8125Z" fill="#0385FF"/>
<path d="M5.03125 11.8125C5.39369 11.8125 5.6875 12.1063 5.6875 12.4687C5.6875 12.8312 5.39369 13.125 5.03125 13.125C4.66881 13.125 4.375 12.8312 4.375 12.4688C4.375 12.1063 4.66881 11.8125 5.03125 11.8125Z" fill="#0385FF"/>
</svg>
