<svg width="44" height="38" viewBox="0 0 44 38" fill="none" xmlns="http://www.w3.org/2000/svg">
<path fill-rule="evenodd" clip-rule="evenodd" d="M0.565588 31.7023L18.4001 2.02023C18.7757 1.40348 19.3043 0.893601 19.935 0.539745C20.5657 0.18589 21.2772 0 22.0009 0C22.7246 0 23.4361 0.18589 24.0668 0.539745C24.6975 0.893601 25.2261 1.40348 25.6017 2.02023L43.4362 31.7023C43.8037 32.3372 43.9981 33.057 44 33.79C44.0019 34.5229 43.8114 35.2437 43.4473 35.8805C43.0832 36.5173 42.5582 37.048 41.9245 37.4198C41.2909 37.7917 40.5707 37.9917 39.8355 38H4.16636C3.43084 37.9924 2.71015 37.7929 2.07607 37.4212C1.44199 37.0496 0.916663 36.5188 0.552414 35.8817C0.188165 35.2447 -0.00229063 34.5236 2.07908e-05 33.7903C0.00233221 33.057 0.197329 32.3371 0.565588 31.7023ZM22.0009 11.5498C22.6711 11.5498 23.3138 11.8152 23.7877 12.2877C24.2615 12.7601 24.5278 13.4008 24.5278 14.0689V21.6261C24.5278 22.2942 24.2615 22.9349 23.7877 23.4073C23.3138 23.8798 22.6711 24.1452 22.0009 24.1452C21.3307 24.1452 20.688 23.8798 20.2142 23.4073C19.7403 22.9349 19.4741 22.2942 19.4741 21.6261V14.0689C19.4741 13.4008 19.7403 12.7601 20.2142 12.2877C20.688 11.8152 21.3307 11.5498 22.0009 11.5498ZM19.4741 29.1833C19.4741 28.5152 19.7403 27.8744 20.2142 27.402C20.688 26.9296 21.3307 26.6642 22.0009 26.6642H22.0211C22.6913 26.6642 23.334 26.9296 23.8079 27.402C24.2818 27.8744 24.548 28.5152 24.548 29.1833C24.548 29.8514 24.2818 30.4921 23.8079 30.9645C23.334 31.4369 22.6913 31.7023 22.0211 31.7023H22.0009C21.3307 31.7023 20.688 31.4369 20.2142 30.9645C19.7403 30.4921 19.4741 29.8514 19.4741 29.1833Z" fill="#FF6767"/>
</svg>
