<svg width="21" height="21" viewBox="0 0 21 21" fill="none" xmlns="http://www.w3.org/2000/svg">
<g clip-path="url(#clip0_463_15403)">
<circle cx="10.5" cy="5.25" r="3.5" stroke="#0385FF" stroke-width="1.2"/>
<path d="M15.75 7.875C17.1997 7.875 18.375 6.89562 18.375 5.6875C18.375 4.47938 17.1997 3.5 15.75 3.5" stroke="#0385FF" stroke-width="1.2" stroke-linecap="round"/>
<path d="M5.25 7.875C3.80025 7.875 2.625 6.89562 2.625 5.6875C2.625 4.47938 3.80025 3.5 5.25 3.5" stroke="#0385FF" stroke-width="1.2" stroke-linecap="round"/>
<ellipse cx="10.5" cy="14.875" rx="5.25" ry="3.5" stroke="#0385FF" stroke-width="1.2"/>
<path d="M17.5 16.625C19.035 16.2884 20.125 15.4359 20.125 14.4375C20.125 13.4391 19.035 12.5866 17.5 12.25" stroke="#0385FF" stroke-width="1.2" stroke-linecap="round"/>
<path d="M3.5 16.625C1.96503 16.2884 0.875 15.4359 0.875 14.4375C0.875 13.4391 1.96503 12.5866 3.5 12.25" stroke="#0385FF" stroke-width="1.2" stroke-linecap="round"/>
</g>
<defs>
<clipPath id="clip0_463_15403">
<rect width="21" height="21" fill="white"/>
</clipPath>
</defs>
</svg>
