<svg width="16" height="16" viewBox="0 0 16 16" fill="none" xmlns="http://www.w3.org/2000/svg">
<path d="M14.6801 11.2133L12.5934 6.33327C12.2134 5.43993 11.6468 4.93327 11.0001 4.89993C10.3601 4.8666 9.74009 5.31327 9.26676 6.1666L8.00009 8.43993C7.73342 8.91993 7.35342 9.2066 6.94009 9.23993C6.52009 9.27993 6.10009 9.05993 5.76009 8.6266L5.61342 8.43993C5.14009 7.8466 4.55342 7.55993 3.95342 7.61993C3.35343 7.67993 2.84009 8.09327 2.50009 8.7666L1.34676 11.0666C0.933425 11.8999 0.973425 12.8666 1.46009 13.6533C1.94676 14.4399 2.79342 14.9133 3.72009 14.9133H12.2268C13.1201 14.9133 13.9534 14.4666 14.4468 13.7199C14.9534 12.9733 15.0334 12.0333 14.6801 11.2133Z" fill="white"/>
<path d="M4.64664 5.58675C5.89113 5.58675 6.89998 4.57789 6.89998 3.33341C6.89998 2.08893 5.89113 1.08008 4.64664 1.08008C3.40216 1.08008 2.39331 2.08893 2.39331 3.33341C2.39331 4.57789 3.40216 5.58675 4.64664 5.58675Z" fill="white"/>
</svg>
