<svg width="95" height="79" viewBox="0 0 95 79" fill="none" xmlns="http://www.w3.org/2000/svg">
<path d="M9.5 9.66667H52.25L61.75 0H85.5C90.725 0 95 4.35 95 9.66667V29H0V19.3333C0 14.0167 4.275 9.66667 9.5 9.66667Z" fill="url(#paint0_linear_366_17026)"/>
<path d="M9.5 9H85.5C90.725 9 95 13.3071 95 18.5714V66.4286C95 71.6929 90.725 76 85.5 76H9.5C4.275 76 0 71.6929 0 66.4286V18.5714C0 13.3071 4.275 9 9.5 9Z" fill="#0385FF"/>
<g filter="url(#filter0_d_366_17026)">
<path d="M60.4938 41.2166V34.8145C60.4938 33.6186 59.5897 32.2624 58.4668 31.8103L50.3438 28.4853C48.5209 27.7416 46.4647 27.7416 44.6418 28.4853L36.5188 31.8103C35.4105 32.2624 34.5063 33.6186 34.5063 34.8145V41.2166C34.5063 48.3478 39.6834 55.027 46.7563 56.9811C47.2376 57.1124 47.7626 57.1124 48.2438 56.9811C55.3168 55.027 60.4938 48.3478 60.4938 41.2166ZM48.5938 43.7686V47.6041C48.5938 48.202 48.098 48.6978 47.5001 48.6978C46.9022 48.6978 46.4063 48.202 46.4063 47.6041V43.7686C44.9334 43.302 43.8543 41.9311 43.8543 40.3124C43.8543 38.2999 45.4876 36.6666 47.5001 36.6666C49.5126 36.6666 51.1459 38.2999 51.1459 40.3124C51.1459 41.9457 50.0668 43.302 48.5938 43.7686Z" fill="#FAFAFA"/>
</g>
<defs>
<filter id="filter0_d_366_17026" x="17.2063" y="14.6275" width="60.5875" height="63.7521" filterUnits="userSpaceOnUse" color-interpolation-filters="sRGB">
<feFlood flood-opacity="0" result="BackgroundImageFix"/>
<feColorMatrix in="SourceAlpha" type="matrix" values="0 0 0 0 0 0 0 0 0 0 0 0 0 0 0 0 0 0 127 0" result="hardAlpha"/>
<feOffset dy="4"/>
<feGaussianBlur stdDeviation="8.65"/>
<feComposite in2="hardAlpha" operator="out"/>
<feColorMatrix type="matrix" values="0 0 0 0 0.341346 0 0 0 0 0.341346 0 0 0 0 0.341346 0 0 0 0.25 0"/>
<feBlend mode="normal" in2="BackgroundImageFix" result="effect1_dropShadow_366_17026"/>
<feBlend mode="normal" in="SourceGraphic" in2="effect1_dropShadow_366_17026" result="shape"/>
</filter>
<linearGradient id="paint0_linear_366_17026" x1="61.5191" y1="0.673078" x2="61.5" y2="15" gradientUnits="userSpaceOnUse">
<stop stop-color="#0385FF"/>
<stop offset="1" stop-color="#1064B3"/>
</linearGradient>
</defs>
</svg>
