<svg width="21" height="21" viewBox="0 0 21 21" fill="none" xmlns="http://www.w3.org/2000/svg">
<path d="M4.375 7C4.375 4.52513 4.375 3.28769 5.14384 2.51884C5.91269 1.75 7.15013 1.75 9.625 1.75H11.375C13.8499 1.75 15.0873 1.75 15.8562 2.51884C16.625 3.28769 16.625 4.52513 16.625 7V14C16.625 16.4749 16.625 17.7123 15.8562 18.4812C15.0873 19.25 13.8499 19.25 11.375 19.25H9.625C7.15013 19.25 5.91269 19.25 5.14384 18.4812C4.375 17.7123 4.375 16.4749 4.375 14V7Z" stroke="#0385FF" stroke-width="1.2"/>
<path d="M16.625 17.0625C17.0314 17.0625 17.2347 17.0625 17.4047 17.0356C18.3407 16.8873 19.0748 16.1532 19.2231 15.2172C19.25 15.0472 19.25 14.8439 19.25 14.4375V6.5625C19.25 6.15606 19.25 5.95284 19.2231 5.7828C19.0748 4.84678 18.3407 4.11268 17.4047 3.96443C17.2347 3.9375 17.0314 3.9375 16.625 3.9375" stroke="#0385FF" stroke-width="1.2"/>
<path d="M4.375 17.0625C3.96856 17.0625 3.76534 17.0625 3.5953 17.0356C2.65928 16.8873 1.92518 16.1532 1.77693 15.2172C1.75 15.0472 1.75 14.8439 1.75 14.4375V6.5625C1.75 6.15606 1.75 5.95284 1.77693 5.7828C1.92518 4.84678 2.65928 4.11268 3.5953 3.96443C3.76534 3.9375 3.96856 3.9375 4.375 3.9375" stroke="#0385FF" stroke-width="1.2"/>
<circle cx="12.6875" cy="5.6875" r="1.3125" stroke="#0385FF" stroke-width="1.2"/>
<path d="M4.375 12.9639L5.50431 11.8052C6.09184 11.2024 6.97734 11.237 7.52937 11.8843L10.2951 15.1274C10.7382 15.6469 11.4357 15.7178 11.9483 15.2953L12.1406 15.1369C12.8783 14.5289 13.8764 14.5994 14.5467 15.3067L16.2104 17.0625" stroke="#0385FF" stroke-width="1.2" stroke-linecap="round"/>
</svg>
