<svg width="16" height="16" viewBox="0 0 16 16" fill="none" xmlns="http://www.w3.org/2000/svg">
<path d="M14.1001 4.11341C13.8267 3.96675 13.2534 3.81341 12.4734 4.36008L11.4934 5.05341C11.4201 2.98008 10.5201 2.16675 8.33341 2.16675H4.33341C2.05341 2.16675 1.16675 3.05341 1.16675 5.33341V10.6667C1.16675 12.2001 2.00008 13.8334 4.33341 13.8334H8.33341C10.5201 13.8334 11.4201 13.0201 11.4934 10.9467L12.4734 11.6401C12.8867 11.9334 13.2467 12.0267 13.5334 12.0267C13.7801 12.0267 13.9734 11.9534 14.1001 11.8867C14.3734 11.7467 14.8334 11.3667 14.8334 10.4134V5.58675C14.8334 4.63341 14.3734 4.25341 14.1001 4.11341ZM7.33341 7.58675C6.64675 7.58675 6.08008 7.02675 6.08008 6.33341C6.08008 5.64008 6.64675 5.08008 7.33341 5.08008C8.02008 5.08008 8.58675 5.64008 8.58675 6.33341C8.58675 7.02675 8.02008 7.58675 7.33341 7.58675Z" fill="white"/>
</svg>
