<svg width="16" height="16" viewBox="0 0 16 16" fill="none" xmlns="http://www.w3.org/2000/svg">
<g filter="url(#filter0_i_412_94)">
<circle cx="8.00011" cy="7.82714" r="6.52038" fill="#FFD2D2"/>
</g>
<path d="M8.00016 4.8335C8.2763 4.8335 8.50016 5.05735 8.50016 5.3335V8.00016C8.50016 8.2763 8.2763 8.50016 8.00016 8.50016C7.72402 8.50016 7.50016 8.2763 7.50016 8.00016V5.3335C7.50016 5.05735 7.72402 4.8335 8.00016 4.8335Z" fill="#FF6767"/>
<path d="M8.00016 10.6668C8.36835 10.6668 8.66683 10.3684 8.66683 10.0002C8.66683 9.63197 8.36835 9.3335 8.00016 9.3335C7.63197 9.3335 7.3335 9.63197 7.3335 10.0002C7.3335 10.3684 7.63197 10.6668 8.00016 10.6668Z" fill="#FF6767"/>
<defs>
<filter id="filter0_i_412_94" x="1.47974" y="0.855854" width="13.0408" height="13.4917" filterUnits="userSpaceOnUse" color-interpolation-filters="sRGB">
<feFlood flood-opacity="0" result="BackgroundImageFix"/>
<feBlend mode="normal" in="SourceGraphic" in2="BackgroundImageFix" result="shape"/>
<feColorMatrix in="SourceAlpha" type="matrix" values="0 0 0 0 0 0 0 0 0 0 0 0 0 0 0 0 0 0 127 0" result="hardAlpha"/>
<feOffset dy="-0.450909"/>
<feGaussianBlur stdDeviation="1.12727"/>
<feComposite in2="hardAlpha" operator="arithmetic" k2="-1" k3="1"/>
<feColorMatrix type="matrix" values="0 0 0 0 0 0 0 0 0 0 0 0 0 0 0 0 0 0 0.17 0"/>
<feBlend mode="normal" in2="shape" result="effect1_innerShadow_412_94"/>
</filter>
</defs>
</svg>
